<?xml version="1.0" encoding="UTF-8"?>
<svg width="110px" height="110px" viewBox="0 0 110 110" version="1.1" xmlns="http://www.w3.org/2000/svg" xmlns:xlink="http://www.w3.org/1999/xlink">
    <!-- Generator: Sketch 52.5 (67469) - http://www.bohemiancoding.com/sketch -->
    <title>Ilustrações / Agilidade</title>
    <desc>Created with Sketch.</desc>
    <g id="Ilustrações-/-Agilidade" stroke="none" stroke-width="1" fill="none" fill-rule="evenodd">
        <g id="Group-13" transform="translate(12.000000, 14.000000)">
            <path d="M22.6511687,66 C9.45377194,61.3316129 0,48.7535484 0,33.9698925 C0,15.2086022 15.222467,0 34,0 C52.777533,0 68,15.2086022 68,33.9698925" id="Stroke-1" stroke="#332DE6" stroke-width="5" stroke-linecap="round" stroke-linejoin="round"></path>
            <path d="M34,34 L49,19" id="Stroke-3" stroke="#332DE6" stroke-width="5" stroke-linecap="round" stroke-linejoin="round"></path>
            <path d="M41,34.5 C41,38.6410727 37.6425993,42 33.4995702,42 C29.3582603,42 26,38.6410727 26,34.5 C26,30.3580678 29.3582603,27 33.4995702,27 C37.6425993,27 41,30.3580678 41,34.5" id="Fill-5" fill="#FFFFFF"></path>
            <path d="M41,34.5 C41,38.6410727 37.6425993,42 33.4995702,42 C29.3582603,42 26,38.6410727 26,34.5 C26,30.3580678 29.3582603,27 33.4995702,27 C37.6425993,27 41,30.3580678 41,34.5 Z" id="Stroke-7" stroke="#332DE6" stroke-width="5" stroke-linecap="round" stroke-linejoin="round"></path>
            <polyline id="Stroke-9" stroke="#332DE6" stroke-width="5" stroke-linecap="round" stroke-linejoin="round" points="30 82 48.5572243 63.7261526 55.8013549 70.8596622 78 49"></polyline>
            <polyline id="Stroke-11" stroke="#332DE6" stroke-width="5" stroke-linecap="round" stroke-linejoin="round" points="74 41 87 41 87 54"></polyline>
        </g>
    </g>
</svg>