<?xml version="1.0" encoding="UTF-8"?>
<svg width="108px" height="90px" viewBox="0 0 108 90" version="1.1" xmlns="http://www.w3.org/2000/svg" xmlns:xlink="http://www.w3.org/1999/xlink">
    <!-- Generator: Sketch 52.5 (67469) - http://www.bohemiancoding.com/sketch -->
    <title>Ilutsrações / Confiança</title>
    <desc>Created with Sketch.</desc>
    <g id="Agendor-site" stroke="none" stroke-width="1" fill="none" fill-rule="evenodd">
        <g id="XL---Agendor-/-Home" transform="translate(-359.000000, -1867.000000)">
            <g id="Gestor" transform="translate(0.000000, 1409.000000)">
                <g id="Icones" transform="translate(0.000000, 283.000000)">
                    <g id="Group-5" transform="translate(286.000000, 167.000000)">
                        <g id="Group">
                            <g id="Ilustrações-/-Confiança" transform="translate(72.000000, 0.000000)">
                                <g id="Group-13" transform="translate(4.000000, 10.000000)">
                                    <g id="Group" transform="translate(0.000000, 38.000000)">
                                        <path d="M63,22 C62.9988456,21.9921461 62.9976912,21.9831703 62.9953823,21.9764384 C62.6675274,20.355177 61.6458669,19.0447041 60.4648966,18.1325341 C59.2850807,17.2181202 57.9540359,16.6773258 56.8134702,16.6436663 C52.9496309,16.5314683 49.746119,16.3968307 47.3807151,16.2397535 L47.3795607,16.2397535 C45.5821308,16.1264335 43.2144181,14.3839982 40.8963454,12.5910737 C39.737309,11.6946115 38.5817359,10.8003933 37.4469423,10.1215952 C36.3825683,9.48655442 35.3297384,9.02429856 34.2688277,9.00185896 L34.2688277,9.00073698 C34.1984081,8.999615 34.1279886,8.999615 34.057569,9.00185896 L34.0552602,9.00185896 C32.3247866,9.06805579 29.827779,9.05795797 25,9.10283718" id="Stroke-1" stroke="#332DE6" stroke-width="5" stroke-linecap="round" stroke-linejoin="round"></path>
                                        <path d="M26,41.1426205 C26.004599,41.1426205 26.009198,41.1426205 26.0126473,41.1414788 C33.6148186,40.6151469 41.0330294,42.8186623 47.933851,44.6830875 C54.8335229,46.5452293 61.2456992,48.0991073 66.8312026,45.980079 C75.4417079,42.7124825 85.0812428,38.4470247 92.086692,34.0388521 C95.5899915,31.8364784 98.4367816,29.6044201 100.182108,27.3837789 C101.054771,26.2740292 101.656092,25.1608543 101.892941,24.0362622 C102.12979,22.9105284 101.979173,21.7722357 101.3859,20.7344142 C100.270639,18.7832184 98.39769,17.992008 96.2740949,18.0011417 L96.2740949,18 C95.9694102,18.0011417 95.6612762,18.0205509 95.3485432,18.052519 C92.8501284,18.3173976 90.0205846,19.4591154 87.1393019,20.8816958 C84.2580192,22.3042762 81.3307463,24.016853 78.7150567,25.4554175 C76.0982173,26.8939819 73.7665168,28.0494004 72.2338951,28.3690814 C60.4799632,30.8192079 54.5771278,29.5656017 46.8392855,29.7277256" id="Stroke-3" stroke="#332DE6" stroke-width="5" stroke-linecap="round" stroke-linejoin="round"></path>
                                        <path d="M0,47 L0.0213320692,47 L9.90400569,47 C12.7044323,47 15,44.798704 15,42.1132819 L15,4.88558164 C15,2.20129603 12.7044323,0 9.90400569,0 L0.0213320692,0" id="Stroke-5" stroke="#332DE6" stroke-width="5" stroke-linecap="round" stroke-linejoin="round"></path>
                                        <path d="M4.000617,31 C1.80533704,31 0,32.5799136 0,34.5 C0,36.4319654 1.81274101,38 4.000617,38 C6.20206694,38 8,36.425486 8,34.5 C8,32.5863931 6.20823693,31 4.000617,31" id="Fill-11" fill="#332DE6"></path>
                                    </g>
                                    <g id="Group-10" transform="translate(36.500000, 0.065200)">
                                        <path d="M20.293828,28.9348 C20.3942123,28.9348 20.4916658,28.8994616 20.5671373,28.8358525 C24.1589931,26.622256 28.6858158,24.577577 32.4256836,21.8494536 C36.1838698,19.1079017 39.1653592,15.6256571 39.4804343,10.6040725 C39.7727946,5.91749576 36.7539358,2.6020484 32.7561461,1.42386662 C28.7583564,0.245684832 23.7669811,1.14327983 20.0000021,4.69408084 C16.2330232,1.14327983 11.2416479,0.245684832 7.24312547,1.42386662 C3.24533574,2.6020484 0.227209658,5.91749576 0.519570014,10.6040725 C0.834645084,15.6256571 3.81613453,19.1079017 7.57432066,21.8494536" id="Fill-7" fill="#FFFFFF"></path>
                                        <path d="M20.293828,28.9348 C20.3942123,28.9348 20.4916658,28.8994616 20.5671373,28.8358525 C24.1589931,26.622256 28.6858158,24.577577 32.4256836,21.8494536 C36.1838698,19.1079017 39.1653592,15.6256571 39.4804343,10.6040725 C39.7727946,5.91749576 36.7539358,2.6020484 32.7561461,1.42386662 C28.7583564,0.245684832 23.7669811,1.14327983 20.0000021,4.69408084 C16.2330232,1.14327983 11.2416479,0.245684832 7.24312547,1.42386662 C3.24533574,2.6020484 0.227209658,5.91749576 0.519570014,10.6040725 C0.834645084,15.6256571 3.81613453,19.1079017 7.57432066,21.8494536" id="Stroke-9" stroke="#332DE6" stroke-width="5" stroke-linecap="round" stroke-linejoin="round"></path>
                                    </g>
                                </g>
                            </g>
                        </g>
                    </g>
                </g>
            </g>
        </g>
    </g>
</svg>