<?xml version="1.0" encoding="UTF-8"?>
<svg width="139px" height="36px" viewBox="0 0 139 36" version="1.1" xmlns="http://www.w3.org/2000/svg" xmlns:xlink="http://www.w3.org/1999/xlink">
    <!-- Generator: Sketch 52.5 (67469) - http://www.bohemiancoding.com/sketch -->
    <title>Logo / Horizontal</title>
    <desc>Created with Sketch.</desc>
    <g id="Symbols" stroke="none" stroke-width="1" fill="none" fill-rule="evenodd">
        <g id="Components-/-Navegation-/-Header" transform="translate(-286.000000, -14.000000)" fill="#332DE6" fill-rule="nonzero">
            <g id="Logo-/-Horizontal" transform="translate(286.000000, 14.000000)">
                <path d="M31.6591865,5.49527492 L36.7202067,5.49527492 L36.7202067,1.5595287 L31.6591865,1.5595287 L31.6591865,5.49527492 Z M28.773,18.7663323 C26.6061277,18.7663323 25.842596,18.0941873 25.842596,15.6047492 C25.842596,13.1152024 26.6061277,12.4181511 28.773,12.4181511 C30.9400875,12.4181511 31.703404,13.1152024 31.703404,15.6047492 C31.703404,18.0941873 30.9400875,18.7663323 28.773,18.7663323 Z M28.773,7.28418127 C23.6028885,7.28418127 20.8261161,10.8655831 20.8261161,15.6083384 C20.8261161,20.3512024 23.6028885,23.9003021 28.773,23.9003021 C33.9433266,23.9003021 36.7200991,20.3512024 36.7200991,15.6083384 C36.7200991,10.8655831 33.9433266,7.28418127 28.773,7.28418127 Z M36.7200991,33.7231903 L36.7200991,35.9559517 L31.6571424,35.9559517 L31.6416502,33.7231903 C31.6416502,32.121571 30.3572988,30.823287 28.773,30.823287 L26.5644923,30.8076254 L26.5644923,25.6893172 L28.773,25.6893172 C33.1621509,25.6893172 36.7200991,29.2861631 36.7200991,33.7231903 Z M138.982786,7.28418127 L138.982786,12.4025982 L131.504974,12.4025982 L131.504974,27.5610997 L126.442017,27.5610997 L126.442017,12.4033595 C126.442017,9.57621752 128.709159,7.28418127 131.505834,7.28418127 L138.982786,7.28418127 Z M113.710176,22.4426828 C110.282729,22.4426828 109.075516,21.3402779 109.075516,17.4030091 C109.075516,13.4657402 110.282729,12.4025982 113.710176,12.4025982 C117.137193,12.4025982 118.344837,13.4657402 118.344837,17.4030091 C118.344837,21.3402779 117.137193,22.4426828 113.710176,22.4426828 Z M113.710176,7.28418127 C107.400738,7.28418127 104.012129,11.6151662 104.012129,17.4030091 C104.012129,23.1907432 107.400738,27.5610997 113.710176,27.5610997 C120.019399,27.5610997 123.407901,23.1907432 123.407901,17.4030091 C123.407901,11.6151662 120.019399,7.28418127 113.710176,7.28418127 Z M91.1936827,22.4426828 C87.961072,22.4426828 86.5590224,21.458284 86.5590224,17.4030091 C86.5590224,13.386997 87.961072,12.4025982 91.1936827,12.4025982 C94.4262933,12.4025982 95.8283429,13.386997 95.8283429,17.4030091 C95.8283429,21.458284 94.4262933,22.4426828 91.1936827,22.4426828 Z M95.8283429,9.52836254 C94.5040774,8.15024773 92.556894,7.28418127 90.2199296,7.28418127 C84.1052206,7.28418127 81.4955279,11.6151662 81.4955279,17.4030091 C81.4955279,23.1907432 84.1052206,27.5610997 90.2199296,27.5610997 C92.556894,27.5610997 94.5040774,26.695142 95.8283429,25.2775468 L95.8283429,27.5610997 L100.891407,27.5610997 L100.891407,5.68434189e-13 L95.8283429,5.68434189e-13 L95.8283429,9.52836254 Z M78.4829288,12.4033595 L78.4829288,27.5610997 L73.4198646,27.5610997 L73.4198646,12.4025982 L65.2409195,12.4025982 L65.2409195,27.5610997 L60.1779628,27.5610997 L60.1779628,12.4033595 C60.1779628,9.57621752 62.4451045,7.28418127 65.2417802,7.28418127 L73.4190039,7.28418127 C76.2156796,7.28418127 78.4829288,9.57621752 78.4829288,12.4033595 Z M44.3600426,15.4341027 C44.5935023,13.3080363 45.7232539,12.4025982 48.0598955,12.4025982 C50.474644,12.4025982 51.6040728,13.1900302 51.7600712,15.4341027 L44.3600426,15.4341027 Z M48.1376796,7.28418127 C41.6725658,7.28418127 39.2577098,11.8119154 39.2577098,17.4422719 C39.2577098,21.1433112 40.543137,27.5610997 49.5398367,27.5610997 C51.0197779,27.5610997 52.5000418,27.5610997 55.5377082,26.8524109 L55.5377082,21.8126284 C52.8505542,22.4426828 51.0978847,22.4426828 49.9291873,22.4426828 C46.2682802,22.4426828 44.9832833,21.3402779 44.5545565,19.3714804 L56.8619737,19.3714804 L56.8619737,17.0092931 C56.8619737,11.4968338 54.4472252,7.28418127 48.1376796,7.28418127 Z M8.72429412,22.915142 C6.07608591,22.915142 5.063387,22.4426828 5.063387,20.8676012 C5.063387,19.2928459 6.07608591,18.8203867 8.72429412,18.8203867 C11.3725023,18.8203867 12.3853088,19.2928459 12.3853088,20.8676012 C12.3853088,22.4426828 11.3725023,22.915142 8.72429412,22.915142 Z M17.4482655,12.4033595 C17.4482655,9.57621752 15.1811238,7.28418127 12.3844481,7.28418127 L2.25918034,7.28418127 L2.25918034,12.4025982 L12.3853088,12.4025982 L12.3853088,16.1429003 C11.4117709,15.0798671 9.89266873,14.1743202 6.97162461,14.1743202 C2.22023452,14.1743202 1.13686838e-13,17.2453051 1.13686838e-13,20.8676012 C1.13686838e-13,24.4898973 2.22023452,27.5610997 6.97162461,27.5610997 C9.89266873,27.5610997 11.4117709,26.6159637 12.3853088,25.5926284 C12.3853088,26.6798066 13.2570712,27.5610997 14.3323847,27.5610997 L19.8912012,27.5610997 L19.8912012,22.4426828 L17.4482655,22.4426828 L17.4482655,12.4033595 Z" id="Fill-1"></path>
            </g>
        </g>
    </g>
</svg>