<?xml version="1.0" encoding="UTF-8"?>
<svg width="83px" height="101px" viewBox="0 0 83 101" version="1.1" xmlns="http://www.w3.org/2000/svg" xmlns:xlink="http://www.w3.org/1999/xlink">
    <!-- Generator: Sketch 52.5 (67469) - http://www.bohemiancoding.com/sketch -->
    <title>Ilutsrações / Confiança</title>
    <desc>Created with Sketch.</desc>
    <g id="Agendor-site" stroke="none" stroke-width="1" fill="none" fill-rule="evenodd" stroke-linecap="round" stroke-linejoin="round">
        <g id="XL---Agendor-/-Home" transform="translate(-1217.000000, -2925.000000)" stroke="#332DE6">
            <g id="Vendedor" transform="translate(-14.000000, 2406.000000)">
                <g id="Icones" transform="translate(0.000000, 351.000000)">
                    <g id="Group-5" transform="translate(299.000000, 167.000000)">
                        <g id="Ilustrações-/-Relações" transform="translate(927.000000, 0.000000)">
                            <g id="Group-7" stroke-width="1" transform="translate(43.858067, 57.121523) rotate(-15.000000) translate(-43.858067, -57.121523) translate(15.358067, 5.621523)">
                                <path d="M28.2639703,15.8246673 C35.9966742,15.8246673 42.2639703,23.4351121 42.2639703,32.8246673" id="Stroke-1" stroke-width="5"></path>
                                <path d="M55.7597633,32.8603552 C55.7597633,14.9556075 43.4473002,0.441762252 28.2597633,0.441762252 C13.0722264,0.441762252 0.759763326,14.9556075 0.759763326,32.8603552 C0.759763326,48.447679 10.0950515,61.4618793 22.5328205,64.5694386 C22.5177373,64.804406 22.5072952,65.0428289 22.5072952,65.2835553 C22.5072952,69.7905529 25.0830272,73.4417623 28.2597633,73.4417623 C31.4376597,73.4417623 34.0122315,69.7905529 34.0122315,65.2835553 C34.0122315,65.0428289 34.0017893,64.804406 33.9867062,64.5694386 C46.4256354,61.4618793 55.7597633,48.447679 55.7597633,32.8603552 Z" id="Stroke-3" stroke-width="5"></path>
                                <path d="M56.9340846,102.862464 C56.9340846,94.8542773 50.4425947,88.3630493 42.4340846,88.3630493 C34.4255744,88.3630493 27.9340846,81.8706516 27.9340846,73.8624645" id="Stroke-5" stroke-width="5"></path>
                            </g>
                            <circle id="Oval" stroke-width="5" fill="#FFFFFF" cx="75.5" cy="10.5" r="6.5"></circle>
                            <circle id="Oval-Copy" stroke-width="5" fill="#FFFFFF" cx="17.5" cy="88.5" r="9.5"></circle>
                        </g>
                    </g>
                </g>
            </g>
        </g>
    </g>
</svg>