<?xml version="1.0" encoding="UTF-8"?>
<svg width="110px" height="110px" viewBox="0 0 110 110" version="1.1" xmlns="http://www.w3.org/2000/svg" xmlns:xlink="http://www.w3.org/1999/xlink">
    <!-- Generator: Sketch 52.5 (67469) - http://www.bohemiancoding.com/sketch -->
    <title>Ilustrações / Time</title>
    <desc>Created with Sketch.</desc>
    <g id="Ilustrações-/-Time" stroke="none" stroke-width="1" fill="none" fill-rule="evenodd">
        <g id="Group-11" transform="translate(12.000000, 18.000000)">
            <path d="M41.6776,25.4214 C41.6776,34.1494 34.6026,41.2244 25.8746,41.2244 C17.1466,41.2244 10.0716,34.1494 10.0716,25.4214 C10.0716,16.6924 17.1466,9.6174 25.8746,9.6174 C34.6026,9.6174 41.6776,16.6924 41.6776,25.4214" id="Fill-1" fill="#FFFFFF"></path>
            <path d="M41.6776,25.4214 C41.6776,34.1494 34.6026,41.2244 25.8746,41.2244 C17.1466,41.2244 10.0716,34.1494 10.0716,25.4214 C10.0716,16.6924 17.1466,9.6174 25.8746,9.6174 C34.6026,9.6174 41.6776,16.6924 41.6776,25.4214 Z" id="Stroke-3" stroke="#332DE6" stroke-width="5" stroke-linecap="round" stroke-linejoin="round"></path>
            <path d="M0.4998,74.6499 C0.4998,60.6359 11.8608,49.2759 25.8748,49.2759 C39.8878,49.2759 51.2488,60.6359 51.2488,74.6499" id="Stroke-5" stroke="#332DE6" stroke-width="5" stroke-linecap="round" stroke-linejoin="round"></path>
            <path d="M47.8846,6.441 C50.7806,2.82 55.2366,0.5 60.2336,0.5 C68.9616,0.5 76.0366,7.576 76.0366,16.303 C76.0366,25.031 68.9616,32.107 60.2336,32.107 C56.9606,32.107 53.9206,31.112 51.3976,29.408" id="Stroke-7" stroke="#332DE6" stroke-width="5" stroke-linecap="round" stroke-linejoin="round"></path>
            <path d="M45.8206,44.646 C49.9136,41.816 54.8806,40.158 60.2336,40.158 C74.2476,40.158 85.6076,51.518 85.6076,65.532" id="Stroke-9" stroke="#332DE6" stroke-width="5" stroke-linecap="round" stroke-linejoin="round"></path>
        </g>
    </g>
</svg>