<?xml version="1.0" encoding="UTF-8"?>
<svg width="110px" height="110px" viewBox="0 0 110 110" version="1.1" xmlns="http://www.w3.org/2000/svg" xmlns:xlink="http://www.w3.org/1999/xlink">
    <!-- Generator: Sketch 52.5 (67469) - http://www.bohemiancoding.com/sketch -->
    <title>Ilustrações / Vendas</title>
    <desc>Created with Sketch.</desc>
    <g id="Ilustrações-/-Vendas" stroke="none" stroke-width="1" fill="none" fill-rule="evenodd">
        <g id="Group-13" transform="translate(13.000000, 16.000000)">
            <polygon id="Fill-1" fill="#FFFFFF" points="37.3424 13.3058 37.3424 1.4998 0.5004 1.4998 0.5004 39.0168 11.8024 28.4428 24.7654 28.4428 24.7654 13.3058"></polygon>
            <g id="Group-12" transform="translate(0.000000, 0.844500)" stroke="#332DE6" stroke-linecap="round" stroke-linejoin="round" stroke-width="5">
                <polygon id="Stroke-2" points="37.3424 12.4613 37.3424 0.6553 0.5004 0.6553 0.5004 38.1723 11.8024 27.5983 24.7654 27.5983 24.7654 12.4613"></polygon>
                <polygon id="Stroke-4" points="24.7658 62.6546 65.8688 62.6546 84.0588 76.5006 84.0588 12.4616 24.7658 12.4616"></polygon>
                <path d="M48.1183,42.264 C48.1183,45.74 50.9363,48.558 54.4123,48.558 C57.8883,48.558 60.7063,45.74 60.7063,42.264 C60.7063,38.787 57.8883,35.97 54.4123,35.97 C51.6163,35.97 49.3493,33.703 49.3493,30.907 C49.3493,28.111 51.6163,25.844 54.4123,25.844 C57.2083,25.844 59.4753,28.111 59.4753,30.907" id="Stroke-6"></path>
                <path d="M54.4123,20.0492 L54.4123,25.8442" id="Stroke-8"></path>
                <path d="M54.4123,48.558 L54.4123,54.353" id="Stroke-10"></path>
            </g>
        </g>
    </g>
</svg>